HIERARCHY
ROOT Hips
{
	OFFSET 0.000000 35.082581 0.000000
	CHANNELS 6 Xposition Yposition Zposition Xrotation Yrotation Zrotation 
	JOINT Spine
	{
		OFFSET 0.000000 6.876099 0.125700
		CHANNELS 3 Xrotation Yrotation Zrotation
		JOINT Spine1
		{
			OFFSET 0.000000 5.730043 0.104720
			CHANNELS 3 Xrotation Yrotation Zrotation
			JOINT Spine1_split
			{
				OFFSET 0.000000 5.730043 0.104720
				CHANNELS 3 Xrotation Yrotation Zrotation
				JOINT Spine2
				{
					OFFSET 0.000000 5.730043 0.104720
					CHANNELS 3 Xrotation Yrotation Zrotation
					JOINT Neck
					{
						OFFSET 0.000000 10.314075 0.188496
						CHANNELS 3 Xrotation Yrotation Zrotation
						JOINT Head
						{
							OFFSET 0.000000 7.643700 -2.377400
							CHANNELS 3 Xrotation Yrotation Zrotation
							JOINT HeadTop_End
							{
								OFFSET 0.000000 43.788605 -13.619600
								CHANNELS 3 Xrotation Yrotation Zrotation
								End Site
								{
									OFFSET 0.000000 0.000000 0.000000
								}
							}
						}
					}
					JOINT LeftShoulder
					{
						OFFSET 2.196100 4.412489 0.087492
						CHANNELS 3 Xrotation Yrotation Zrotation
						JOINT LeftShoulder_split
						{
							OFFSET 2.196100 4.412489 0.087492
							CHANNELS 3 Xrotation Yrotation Zrotation
							JOINT LeftArm
							{
								OFFSET 8.771219 -2.981674 -0.026999
								CHANNELS 3 Xrotation Yrotation Zrotation
								JOINT LeftForeArm
								{
									OFFSET 8.512804 0.000000 -0.000000
									CHANNELS 3 Xrotation Yrotation Zrotation
									JOINT LeftHand
									{
										OFFSET 18.484802 0.000000 -0.000000
										CHANNELS 3 Xrotation Yrotation Zrotation
										JOINT LeftHandThumb1
										{
											OFFSET 2.499420 -1.158070 2.653252
											CHANNELS 3 Xrotation Yrotation Zrotation
											JOINT LeftHandThumb2
											{
												OFFSET 2.370079 -1.368366 1.368366
												CHANNELS 3 Xrotation Yrotation Zrotation
												JOINT LeftHandThumb3
												{
													OFFSET 2.676727 -1.545410 1.545409
													CHANNELS 3 Xrotation Yrotation Zrotation
													JOINT LeftHandThumb4
													{
														OFFSET 1.692226 -0.977005 0.977007
														CHANNELS 3 Xrotation Yrotation Zrotation
														End Site
														{
															OFFSET 0.000000 0.000000 0.000000
														}
													}
												}
											}
										}
										JOINT LeftHandIndex1
										{
											OFFSET 7.924831 -0.457527 2.345128
											CHANNELS 3 Xrotation Yrotation Zrotation
											JOINT LeftHandIndex2
											{
												OFFSET 3.643303 0.000000 0.000000
												CHANNELS 3 Xrotation Yrotation Zrotation
												JOINT LeftHandIndex3
												{
													OFFSET 3.810799 0.000000 0.000000
													CHANNELS 3 Xrotation Yrotation Zrotation
													JOINT LeftHandIndex4
													{
														OFFSET 2.403702 0.000000 0.000000
														CHANNELS 3 Xrotation Yrotation Zrotation
														End Site
														{
															OFFSET 0.000000 0.000000 0.000000
														}
													}
												}
											}
										}
										JOINT LeftHandMiddle1
										{
											OFFSET 8.563995 0.000000 -0.000000
											CHANNELS 3 Xrotation Yrotation Zrotation
											JOINT LeftHandMiddle2
											{
												OFFSET 3.861618 0.000000 0.000000
												CHANNELS 3 Xrotation Yrotation Zrotation
												JOINT LeftHandMiddle3
												{
													OFFSET 3.701603 0.000000 0.000000
													CHANNELS 3 Xrotation Yrotation Zrotation
													JOINT LeftHandMiddle4
													{
														OFFSET 2.322544 0.000000 0.000000
														CHANNELS 3 Xrotation Yrotation Zrotation
														End Site
														{
															OFFSET 0.000000 0.000000 0.000000
														}
													}
												}
											}
										}
										JOINT LeftHandRing1
										{
											OFFSET 8.426460 -0.424637 -3.286992
											CHANNELS 3 Xrotation Yrotation Zrotation
											JOINT LeftHandRing2
											{
												OFFSET 3.126408 0.000000 0.000000
												CHANNELS 3 Xrotation Yrotation Zrotation
												JOINT LeftHandRing3
												{
													OFFSET 3.085026 0.000000 0.000000
													CHANNELS 3 Xrotation Yrotation Zrotation
													JOINT LeftHandRing4
													{
														OFFSET 1.644005 0.000000 0.000000
														CHANNELS 3 Xrotation Yrotation Zrotation
														End Site
														{
															OFFSET 0.000000 0.000000 0.000000
														}
													}
												}
											}
										}
									}
								}
							}
						}
					}
					JOINT RightShoulder
					{
						OFFSET -2.196100 4.412496 0.070690
						CHANNELS 3 Xrotation Yrotation Zrotation
						JOINT RightShoulder_split
						{
							OFFSET -2.196100 4.412496 0.070690
							CHANNELS 3 Xrotation Yrotation Zrotation
							JOINT RightArm
							{
								OFFSET -8.771282 -2.981682 -0.094208
								CHANNELS 3 Xrotation Yrotation Zrotation
								JOINT RightForeArm
								{
									OFFSET -8.494598 0.000000 0.000000
									CHANNELS 3 Xrotation Yrotation Zrotation
									JOINT RightHand
									{
										OFFSET -18.483803 0.000000 0.000001
										CHANNELS 3 Xrotation Yrotation Zrotation
										JOINT RightHandThumb1
										{
											OFFSET -2.527351 -1.008072 2.575253
											CHANNELS 3 Xrotation Yrotation Zrotation
											JOINT RightHandThumb2
											{
												OFFSET -2.321518 -1.340328 1.340329
												CHANNELS 3 Xrotation Yrotation Zrotation
												JOINT RightHandThumb3
												{
													OFFSET -2.657753 -1.534454 1.534455
													CHANNELS 3 Xrotation Yrotation Zrotation
													JOINT RightHandThumb4
													{
														OFFSET -1.807510 -1.043568 1.043567
														CHANNELS 3 Xrotation Yrotation Zrotation
														End Site
														{
															OFFSET 0.000000 0.000000 0.000000
														}
													}
												}
											}
										}
										JOINT RightHandIndex1
										{
											OFFSET -8.811420 0.015533 2.887987
											CHANNELS 3 Xrotation Yrotation Zrotation
											JOINT RightHandIndex2
											{
												OFFSET -3.537502 0.000000 0.000000
												CHANNELS 3 Xrotation Yrotation Zrotation
												JOINT RightHandIndex3
												{
													OFFSET -3.356201 0.000000 0.000000
													CHANNELS 3 Xrotation Yrotation Zrotation
													JOINT RightHandIndex4
													{
														OFFSET -1.933098 0.000000 0.000000
														CHANNELS 3 Xrotation Yrotation Zrotation
														End Site
														{
															OFFSET 0.000000 0.000000 0.000000
														}
													}
												}
											}
										}
										JOINT RightHandMiddle1
										{
											OFFSET -8.178135 0.000000 0.000000
											CHANNELS 3 Xrotation Yrotation Zrotation
											JOINT RightHandMiddle2
											{
												OFFSET -3.901302 0.000000 0.000000
												CHANNELS 3 Xrotation Yrotation Zrotation
												JOINT RightHandMiddle3
												{
													OFFSET -3.909599 0.000000 0.000000
													CHANNELS 3 Xrotation Yrotation Zrotation
													JOINT RightHandMiddle4
													{
														OFFSET -2.376003 0.000000 0.000000
														CHANNELS 3 Xrotation Yrotation Zrotation
														End Site
														{
															OFFSET 0.000000 0.000000 0.000000
														}
													}
												}
											}
										}
										JOINT RightHandRing1
										{
											OFFSET -7.559013 0.014137 -2.865403
											CHANNELS 3 Xrotation Yrotation Zrotation
											JOINT RightHandRing2
											{
												OFFSET -3.449306 0.000000 0.000000
												CHANNELS 3 Xrotation Yrotation Zrotation
												JOINT RightHandRing3
												{
													OFFSET -3.362106 0.000000 0.000000
													CHANNELS 3 Xrotation Yrotation Zrotation
													JOINT RightHandRing4
													{
														OFFSET -2.076401 0.000000 0.000000
														CHANNELS 3 Xrotation Yrotation Zrotation
														End Site
														{
															OFFSET 0.000000 0.000000 0.000000
														}
													}
												}
											}
										}
									}
								}
							}
						}
					}
				}
			}
		}
	}
	JOINT LeftUpLeg
	{
		OFFSET 10.205400 -3.823500 0.155100
		CHANNELS 3 Xrotation Yrotation Zrotation
		JOINT LeftLeg
		{
			OFFSET 0.708757 -12.982077 0.567790
			CHANNELS 3 Xrotation Yrotation Zrotation
			JOINT LeftFoot
			{
				OFFSET -0.708756 -10.717838 -2.184338
				CHANNELS 3 Xrotation Yrotation Zrotation
				JOINT LeftToeBase
				{
					OFFSET 0.108149 -7.191104 7.560241
					CHANNELS 3 Xrotation Yrotation Zrotation
					JOINT LeftToe_End
					{
						OFFSET 0.070230 0.081724 4.490308
						CHANNELS 3 Xrotation Yrotation Zrotation
						End Site
						{
							OFFSET 0.000000 0.000000 0.000000
						}
					}
				}
			}
		}
	}
	JOINT RightUpLeg
	{
		OFFSET -10.205400 -3.823500 0.005500
		CHANNELS 3 Xrotation Yrotation Zrotation
		JOINT RightLeg
		{
			OFFSET -0.708756 -12.982134 0.610632
			CHANNELS 3 Xrotation Yrotation Zrotation
			JOINT RightFoot
			{
				OFFSET 0.708754 -10.717769 -1.945823
				CHANNELS 3 Xrotation Yrotation Zrotation
				JOINT RightToeBase
				{
					OFFSET -0.108140 -7.191069 7.372968
					CHANNELS 3 Xrotation Yrotation Zrotation
					JOINT RightToe_End
					{
						OFFSET -0.070227 0.081735 4.479403
						CHANNELS 3 Xrotation Yrotation Zrotation
						End Site
						{
							OFFSET 0.000000 0.000000 0.000000
						}
					}
				}
			}
		}
	}
}
MOTION
Frames: 6
Frame Time: 0.016667
-25.160175 6.937761 0.993732 -59.315050 9.165227 97.356383 13.669154 -0.031364 -4.744291 16.440308 0.246665 -3.275167 0.000000 0.000000 0.000000 16.425635 0.382579 -3.359043 55.837872 6.470989 -15.932345 -15.707540 9.351472 1.833019 -0.000001 -0.000002 0.000001 5.814966 1.516417 -4.688144 0.000000 0.000000 0.000000 -74.915263 -6.740975 -27.974771 58.640808 -0.227354 0.365199 -133.094760 1.338617 -9.402769 40.109938 -15.297165 -0.360481 5.639803 28.097933 11.338841 1.088584 40.896270 22.734051 -0.000005 -0.000000 0.000003 6.882233 2.840057 -61.140418 8.247989 7.640092 -89.897884 2.146109 8.173441 -41.827747 -0.000002 -0.000000 -0.000001 -2.345518 4.688868 -62.655224 8.754136 9.897097 -87.051307 1.995396 4.929282 -37.483436 0.000001 0.000003 0.000001 -9.042477 10.045678 -60.766178 8.524087 9.508826 -66.893042 6.576573 9.896778 -70.385093 0.000002 0.000002 -0.000000 4.351004 9.519751 -3.915238 0.000000 0.000000 0.000000 -1.908446 -4.831221 1.339514 32.754616 33.258763 -23.829338 -6.484596 12.966945 -27.297573 -1.264362 -6.049203 -2.222011 3.622102 -28.238618 -7.467035 -1.666020 -4.024815 -2.390825 0.000003 -0.000002 -0.000000 5.510563 -12.536711 32.643745 0.964242 -4.576403 40.090417 1.053071 -7.415401 38.538567 0.000003 0.000000 0.000000 2.422450 -10.452742 50.257666 1.705357 -6.329531 40.569971 1.565861 -4.685910 43.312811 0.000005 0.000000 0.000000 1.697870 -16.683502 49.417850 3.312918 -5.897105 49.275225 3.225141 -7.675924 51.715829 -0.000000 0.000000 -0.000002 -22.692892 26.544550 -4.096017 56.171165 -1.897312 -7.229450 -23.986660 -12.127188 6.026210 -1.295523 -0.033272 -0.027834 0.000001 -0.000001 0.000000 -25.063924 -50.516373 5.642880 122.232027 -12.413412 3.455948 -39.645232 4.003372 14.928652 -0.001732 0.015042 -0.000104 0.000001 -0.000000 -0.000000 
-25.611221 6.032753 1.015866 -58.841082 3.773236 100.302844 15.962420 -0.791957 -4.464509 15.237942 -0.553109 -2.719564 0.000000 0.000000 0.000000 15.233195 -0.442766 -2.765206 59.396117 3.808056 -15.534181 -14.123796 7.965994 -0.046230 0.000001 0.000000 0.000002 5.850631 3.867365 -9.147199 0.000000 0.000000 0.000000 -79.175464 -4.790801 -29.369653 66.580746 -0.196856 0.415282 -130.528576 2.100611 -1.414852 40.109931 -15.297158 -0.360480 5.639806 28.097935 11.338839 1.088580 40.896277 22.734049 -0.000005 0.000005 -0.000002 6.882235 2.840062 -61.140411 8.247986 7.640092 -89.897884 2.146113 8.173444 -41.827747 -0.000002 -0.000001 -0.000000 -2.345513 4.688869 -62.655224 8.754136 9.897095 -87.051307 1.995393 4.929281 -37.483436 -0.000000 -0.000000 -0.000001 -9.042475 10.045678 -60.766171 8.524091 9.508831 -66.893042 6.576574 9.896776 -70.385093 0.000002 0.000001 -0.000001 3.987320 5.771297 -5.369458 0.000000 0.000000 0.000000 0.856459 3.213909 0.708506 26.740069 31.874949 -18.503131 -6.515414 15.387238 -26.510785 -1.549571 -6.169134 -1.948553 3.754906 -28.218821 -7.731349 -1.572993 -4.021572 -2.475583 -0.000002 -0.000002 -0.000002 5.611884 -12.685509 32.943792 1.033058 -4.592713 40.333367 1.116622 -7.451948 38.833307 0.000001 -0.000000 0.000001 2.535940 -10.495706 50.782286 1.733154 -6.345999 40.670980 1.623964 -4.738617 43.658371 -0.000002 -0.000003 0.000000 1.857088 -16.770037 49.979301 3.310373 -5.941018 49.419366 3.299574 -7.755506 52.230702 -0.000000 0.000000 0.000002 -21.520724 22.375008 -3.650356 61.778378 2.956533 -7.262936 -32.290259 -9.548238 3.535557 -1.251885 -0.018565 -0.015403 0.000000 -0.000002 0.000000 -23.912977 -51.362766 6.747541 124.806517 -19.624440 1.456976 -50.323270 -0.308803 15.978205 -0.001725 0.016246 -0.000127 0.000002 0.000001 -0.000000 
-25.778103 5.498886 1.121583 -58.142019 -0.922986 102.557640 17.616245 -1.641468 -3.646253 13.624167 -1.732716 -2.465775 0.000000 0.000000 0.000000 13.638202 -1.655710 -2.445539 61.075511 1.954518 -14.888460 -12.574471 6.608057 -1.023410 -0.000000 -0.000000 -0.000000 5.241389 7.707915 -14.772666 0.000000 0.000000 0.000000 -82.451510 -2.394256 -28.832892 71.492130 -0.210153 0.553417 -123.104434 0.006975 2.277086 40.109931 -15.297161 -0.360477 5.639805 28.097933 11.338839 1.088583 40.896267 22.734051 -0.000006 0.000000 0.000001 6.882234 2.840054 -61.140418 8.247986 7.640090 -89.897878 2.146109 8.173441 -41.827747 -0.000001 0.000001 -0.000001 -2.345518 4.688863 -62.655224 8.754138 9.897099 -87.051307 1.995395 4.929283 -37.483436 -0.000001 0.000001 0.000000 -9.042476 10.045677 -60.766178 8.524090 9.508830 -66.893042 6.576571 9.896777 -70.385093 -0.000001 0.000001 -0.000003 4.001950 5.115522 -8.837220 0.000000 0.000000 0.000000 0.941046 11.676213 -0.032731 16.412159 34.300162 -10.963364 -9.500773 4.579487 -16.821554 -1.829273 -6.289143 -1.679226 3.885973 -28.199322 -7.991202 -1.480422 -4.021769 -2.560470 0.000003 0.000001 -0.000003 5.712080 -12.831488 33.221190 1.100948 -4.608028 40.554351 1.179150 -7.487889 39.104851 0.000002 -0.000002 0.000000 2.647848 -10.536386 51.279872 1.759843 -6.362498 40.753010 1.681243 -4.790373 43.979967 0.000000 -0.000000 -0.000002 2.014545 -16.852421 50.513784 3.308039 -5.984372 49.543351 3.374239 -7.833470 52.719488 0.000000 0.000004 0.000003 -17.652754 16.661883 -2.517593 63.356439 9.868542 -8.319194 -39.272044 -3.404528 -5.478977 -1.205632 -0.003107 -0.002229 0.000000 0.000000 -0.000000 -23.823061 -53.418247 9.230074 127.426523 -33.370829 -1.521399 -56.912811 -4.678342 17.240098 -0.001685 0.017348 -0.000121 0.000000 -0.000000 0.000000 
-25.914320 5.296124 1.167341 -57.998258 -4.941300 104.858840 17.577922 -1.763532 -4.151814 12.355803 -1.761861 -1.940314 0.000000 0.000000 0.000000 12.378814 -1.624619 -1.926831 59.987687 0.650060 -12.018811 -12.691758 2.856319 1.482934 -0.000000 -0.000000 0.000002 3.701487 9.640409 -19.253692 0.000000 0.000000 0.000000 -85.769752 -1.001407 -27.598669 69.277987 -0.255668 0.574452 -109.058512 -7.133570 4.798861 40.109927 -15.297161 -0.360482 5.639805 28.097933 11.338837 1.088582 40.896263 22.734046 -0.000001 -0.000002 -0.000000 6.882234 2.840058 -61.140411 8.247988 7.640093 -89.897884 2.146109 8.173441 -41.827747 0.000002 0.000001 0.000001 -2.345518 4.688869 -62.655217 8.754138 9.897101 -87.051307 1.995396 4.929283 -37.483436 -0.000001 0.000001 0.000001 -9.042475 10.045675 -60.766178 8.524091 9.508828 -66.893035 6.576572 9.896777 -70.385086 0.000001 -0.000000 -0.000002 3.553671 17.233496 -9.962826 0.000000 0.000000 0.000000 5.185746 5.341677 -2.433859 15.662635 31.146407 -9.027873 -12.315944 0.733310 -13.862435 -2.103294 -6.408976 -1.414471 4.016369 -28.183517 -8.246999 -1.390842 -4.017058 -2.642540 -0.000000 -0.000000 -0.000000 5.811197 -12.974701 33.475362 1.167854 -4.622501 40.751866 1.241192 -7.522250 39.352698 -0.000000 0.000001 0.000000 2.758034 -10.575047 51.750178 1.786553 -6.378083 40.814318 1.737831 -4.841165 44.277289 -0.000001 0.000003 -0.000002 2.170296 -16.931233 51.020690 3.305870 -6.027664 49.645961 3.449120 -7.909940 53.181246 -0.000001 -0.000000 -0.000001 -12.974566 11.451263 -2.838917 62.652553 18.919219 -8.918907 -41.348063 3.271041 -14.094351 -1.197330 -0.000467 -0.000009 -0.000000 -0.000000 -0.000000 -29.471409 -52.475148 4.302345 127.973266 -38.329297 -3.062164 -54.980755 -5.538603 15.374442 -0.001736 0.018278 -0.000167 -0.000002 0.000001 0.000000 
-26.681665 5.293283 1.123768 -59.079968 -8.571398 107.374433 17.215779 -1.056250 -5.366864 11.398450 -0.584635 -0.043191 0.000000 0.000000 0.000000 11.409018 -0.296432 -0.105062 54.211071 -1.921296 -8.891007 -10.171431 -2.965733 3.741873 -0.000002 0.000000 -0.000001 2.907749 8.859728 -22.825142 0.000000 0.000000 0.000000 -91.371593 5.872624 -27.433375 67.652785 -0.270059 0.721405 -89.542728 -4.026825 8.378993 40.109927 -15.297158 -0.360481 5.639802 28.097933 11.338841 1.088583 40.896273 22.734052 -0.000002 -0.000002 -0.000000 6.882235 2.840061 -61.140411 8.247989 7.640091 -89.897878 2.146112 8.173441 -41.827747 -0.000002 -0.000001 -0.000002 -2.345517 4.688869 -62.655217 8.754136 9.897095 -87.051307 1.995394 4.929283 -37.483436 -0.000001 0.000001 -0.000001 -9.042476 10.045681 -60.766178 8.524088 9.508828 -66.893042 6.576575 9.896774 -70.385093 -0.000001 -0.000000 0.000003 5.114551 27.130550 -12.631190 0.000000 0.000000 0.000000 5.284832 -4.495280 -1.329830 24.650095 25.912186 -13.127679 -11.494486 7.705830 -16.701711 -2.371604 -6.528987 -1.154085 4.144817 -28.167133 -8.497892 -1.301557 -4.015386 -2.723528 -0.000000 0.000002 0.000005 5.908754 -13.114883 33.705143 1.233820 -4.636058 40.926350 1.301359 -7.556261 39.575844 0.000001 0.000001 -0.000001 2.866323 -10.611746 52.192030 1.812916 -6.392980 40.854940 1.792993 -4.890616 44.548956 0.000001 0.000002 0.000001 2.324012 -17.006382 51.498971 3.303929 -6.070509 49.727267 3.523539 -7.984636 53.615435 -0.000002 -0.000002 -0.000003 -12.916570 8.413370 -3.718569 62.418196 24.012155 -7.687801 -31.951973 4.943366 -12.929442 -1.193385 0.000772 0.001082 0.000001 0.000001 0.000000 -28.458304 -46.648686 -2.438593 127.436222 -35.523407 -2.480533 -54.216976 -9.285926 18.885833 -0.001708 0.019196 -0.000154 0.000001 0.000000 -0.000000 
-28.280041 5.351879 0.776088 -61.634773 -11.120099 108.275499 15.545039 -0.116792 -5.803709 11.984946 0.511978 1.982728 0.000000 0.000000 0.000000 11.975469 0.929915 1.850485 46.065610 -4.604584 -6.155217 -12.673928 -7.766790 4.720729 0.000001 0.000000 -0.000000 3.188161 10.821017 -28.431289 0.000000 0.000000 0.000000 -98.305936 9.137399 -31.289602 40.343120 -0.640781 0.403861 -50.558495 -10.171269 11.206127 40.109931 -15.297151 -0.360479 5.639810 28.097930 11.338840 1.088576 40.896270 22.734051 -0.000004 0.000002 -0.000004 6.882233 2.840058 -61.140411 8.247986 7.640092 -89.897884 2.146116 8.173441 -41.827747 -0.000001 -0.000001 0.000004 -2.345517 4.688867 -62.655224 8.754139 9.897099 -87.051307 1.995392 4.929283 -37.483433 0.000000 0.000001 -0.000001 -9.042476 10.045676 -60.766171 8.524088 9.508828 -66.893035 6.576572 9.896775 -70.385093 0.000000 -0.000000 -0.000001 9.164699 22.842072 -17.904719 0.000000 0.000000 0.000000 -7.510768 -1.340526 2.190336 31.013205 20.986115 -13.553412 -6.227293 13.141708 -20.340766 -2.634109 -6.648579 -0.898251 4.271467 -28.152076 -8.744326 -1.213992 -4.012220 -2.802124 0.000004 -0.000000 0.000001 6.004666 -13.252290 33.909669 1.298849 -4.648930 41.076618 1.359814 -7.590282 39.773500 -0.000001 -0.000001 -0.000000 2.972450 -10.646612 52.604157 1.838784 -6.407581 40.874458 1.847456 -4.939392 44.794102 -0.000001 0.000003 -0.000000 2.475288 -17.078097 51.947461 3.302188 -6.112911 49.786082 3.598074 -8.057910 54.020236 0.000003 0.000001 -0.000003 -17.172340 5.752901 -4.626253 60.853243 27.140549 -5.188395 -16.086284 4.181321 -5.102861 -1.189638 0.001943 0.002120 -0.000000 -0.000000 0.000002 -24.490145 -36.614353 -11.646476 120.238759 -22.226450 1.319370 -46.726724 -9.967862 24.085149 -0.001711 0.019953 -0.000154 -0.000001 0.000001 0.000000 
